<?xml version="1.0" standalone="no"?>
<!DOCTYPE svg PUBLIC "-//W3C//DTD SVG 20010904//EN"
 "http://www.w3.org/TR/2001/REC-SVG-20010904/DTD/svg10.dtd">
<svg version="1.0" xmlns="http://www.w3.org/2000/svg"
 width="700.000000pt" height="700.000000pt" viewBox="0 0 700.000000 700.000000"
 preserveAspectRatio="xMidYMid meet">
<metadata>
Created by potrace 1.11, written by Peter Selinger 2001-2013
</metadata>
<g transform="translate(0.000000,700.000000) scale(0.100000,-0.100000)"
fill="#000000" stroke="none">
<path d="M3745 6729 c-456 -42 -890 -211 -1261 -490 -135 -101 -319 -282 -393
-386 -104 -146 -178 -316 -218 -503 -25 -119 -25 -382 0 -500 59 -274 180
-493 376 -683 391 -377 950 -469 1450 -241 115 53 255 151 381 269 285 266
548 417 883 509 211 58 314 71 557 70 229 0 321 -11 514 -60 108 -27 143 -26
207 7 62 31 109 110 109 182 0 51 -89 299 -156 438 -128 261 -273 467 -469
665 -182 183 -352 311 -574 434 -416 229 -924 334 -1406 289z m555 -434 c606
-102 1123 -455 1435 -981 36 -60 65 -114 65 -122 0 -9 -8 -10 -27 -5 -48 13
-462 9 -563 -5 -542 -76 -1006 -295 -1390 -657 -120 -113 -164 -147 -251 -194
-362 -195 -788 -126 -1065 172 -155 167 -234 369 -234 597 0 233 80 433 243
606 305 324 753 544 1230 604 106 13 445 4 557 -15z"/>
<path d="M1039 5020 c-63 -33 -211 -208 -331 -388 -259 -394 -391 -814 -405
-1292 -15 -517 124 -1002 407 -1427 105 -157 168 -236 303 -372 320 -326 713
-550 1162 -663 115 -29 367 -36 495 -14 261 45 510 170 692 348 523 509 529
1334 14 1852 -160 161 -337 261 -612 346 -241 74 -381 139 -575 267 -401 264
-713 701 -840 1172 -24 93 -62 146 -123 175 -47 22 -141 20 -187 -4z m64 -704
c120 -262 343 -562 567 -764 284 -255 581 -422 955 -536 83 -26 186 -64 230
-86 216 -106 388 -315 457 -555 33 -116 33 -344 0 -460 -88 -309 -339 -551
-649 -626 -129 -32 -294 -29 -428 6 -516 136 -961 477 -1242 952 -132 225
-230 515 -263 783 -13 109 -13 371 0 480 27 218 92 444 181 629 55 116 137
261 147 261 4 0 24 -38 45 -84z"/>
<path d="M5225 4320 c-579 -66 -1037 -497 -1140 -1073 -26 -145 -17 -393 20
-537 65 -258 88 -502 66 -727 -46 -473 -237 -891 -565 -1240 -95 -101 -116
-139 -116 -210 1 -97 57 -169 153 -198 237 -71 641 -93 933 -50 1047 150 1874
934 2079 1970 74 376 55 798 -51 1155 -114 382 -425 705 -812 844 -160 57
-397 85 -567 66z m356 -439 c194 -50 381 -177 494 -336 136 -192 205 -469 205
-826 0 -992 -712 -1835 -1700 -2010 -107 -20 -470 -40 -470 -27 0 3 33 55 73
116 182 274 312 595 372 916 67 362 54 686 -41 1086 -75 316 1 611 215 834
137 142 289 225 484 262 94 18 268 11 368 -15z"/>
</g>
</svg>
