<?xml version="1.0" encoding="UTF-8" standalone="no"?><!DOCTYPE svg PUBLIC "-//W3C//DTD SVG 1.1//EN" "http://www.w3.org/Graphics/SVG/1.1/DTD/svg11.dtd"><svg width="100%" height="100%" viewBox="0 0 1200 1200" version="1.1" xmlns="http://www.w3.org/2000/svg" xmlns:xlink="http://www.w3.org/1999/xlink" xml:space="preserve" xmlns:serif="http://www.serif.com/" style="fill-rule:evenodd;clip-rule:evenodd;stroke-linejoin:round;stroke-miterlimit:2;"><g id="layer101"><path d="M170.8,1178L165,1172.2L165,862.8C165,516.4 165.7,463.8 170.6,417C177.9,346.9 202.3,279.8 242.7,218.5C299,133 372.3,75.5 464.4,44.5C510.2,29.1 554.5,22 604.5,22C670.5,22 731,35.7 789.7,64C850.3,93.2 902.8,136.7 946,193.5C973.3,229.4 997.3,274 1011.3,315C1023.5,350.7 1029.8,379 1034.7,420.5C1037.2,442.1 1037.2,503.3 1034.7,524C1025.7,597.5 1002.6,660.7 962.5,721.5C899.5,816.9 813.8,878.3 706.5,904.9C689.4,909.1 671.1,912.7 659.5,914C654,914.6 648.2,915.3 646.5,915.7C644.9,916 574.9,916.5 491.2,916.9L338.8,917.5L336.9,919.9C335.1,922.2 335,925.6 335,1046.2C335,1181.6 335.3,1174.8 329.4,1177C327.9,1177.6 296.1,1178 248.9,1178L170.8,1178ZM630.8,738.7C661,733.8 684,726.6 708.5,714.5C768.6,684.9 814.7,634.6 839.4,571.7C852.2,539.2 858,507.8 858,471C858,436.7 853.6,410.2 842.4,377.8C837.9,364.9 823.7,334.1 818.8,327C817.5,325.1 815.2,321.3 813.6,318.6C803.3,300.9 773,267.5 753.9,252.7C733.4,236.9 706.4,221.9 683.5,213.4C670.5,208.7 646.7,202.7 631.5,200.4C616.8,198.2 581.1,197.9 567.5,199.8C520.8,206.5 482.1,222.3 445.5,249.8C391.5,290.4 356.3,345.1 342.6,409.7C335.6,442.7 335.1,458.3 335.6,613.7C335.9,703.3 336.3,733.5 337.2,735.5C339.8,741.3 331.5,741 482,740.7C606.2,740.4 621.6,740.2 630.8,738.7Z" style="fill:currentColor;fill-rule:nonzero;"/></g></svg>